<svg width="50" height="50" viewBox="0 0 50 50" fill="none" xmlns="http://www.w3.org/2000/svg">
<g clip-path="url(#clip0)">
<path d="M49.6143 37.1929C49.462 37.027 46.2581 33.5792 41.7319 31.8421C43.1982 29.4149 44.0431 26.572 44.0431 23.5352V20.6055C44.0431 19.7965 43.3872 19.1406 42.5782 19.1406H39.6485C36.8801 19.1406 34.2232 19.8292 31.8502 21.1479C30.423 15.2615 26.2521 10.9985 26.0396 10.7845C25.7646 10.5073 25.3904 10.3516 25.0001 10.3516C24.6098 10.3516 24.2355 10.5073 23.9604 10.7844C23.7479 10.9984 19.577 15.2615 18.1499 21.1479C15.7769 19.8292 13.1201 19.1406 10.3516 19.1406H7.42196C6.61298 19.1406 5.95712 19.7965 5.95712 20.6055V23.5352C5.95712 26.572 6.80194 29.4149 8.26835 31.8422C3.74218 33.5792 0.538271 37.027 0.385927 37.193C-0.127256 37.7519 -0.128624 38.6102 0.382705 39.1708C0.618642 39.4295 6.24354 45.5078 13.2813 45.5078C15.5 45.5078 17.5683 44.9039 19.3685 44.0688C21.2684 46.5435 24.1453 48.173 24.2848 48.251C24.507 48.3754 24.7536 48.4375 25.0002 48.4375C25.2468 48.4375 25.4933 48.3753 25.7156 48.251C25.8551 48.173 28.7318 46.5435 30.6318 44.0688C32.4319 44.9039 34.5002 45.5078 36.7188 45.5078C43.7566 45.5078 49.3815 39.4295 49.6176 39.1707C50.1289 38.6101 50.1275 37.7518 49.6143 37.1929ZM25.0022 14.0521C26.5805 16.0296 29.3946 20.2257 29.3946 25C29.3946 29.7555 26.5753 33.9651 24.9979 35.9479C23.4197 33.9704 20.6056 29.7743 20.6056 25C20.6056 20.2445 23.4249 16.0349 25.0022 14.0521ZM13.2813 42.5781C9.09931 42.5781 5.33026 39.7401 3.57987 38.1858C4.87401 37.04 7.26503 35.1976 10.0966 34.3057C12.8547 37.3688 16.7681 39.3717 21.1434 39.6211C18.8566 41.2873 16.1094 42.5781 13.2813 42.5781ZM8.88681 23.5352V22.0703H10.3516C12.9991 22.0703 15.52 22.8416 17.6921 24.3038C17.6816 24.5344 17.6759 24.7664 17.6759 25C17.6759 29.9089 20.0662 34.1694 21.9006 36.7166C14.7092 36.6252 8.88681 30.7479 8.88681 23.5352ZM25.0001 45.2465C24.2161 44.7252 22.9416 43.7853 21.9588 42.6195C23.2452 41.7753 24.2846 40.9039 25 40.2457C25.7154 40.9039 26.7548 41.7753 28.0412 42.6195C27.0584 43.7854 25.7836 44.7255 25.0001 45.2465ZM32.3243 25C32.3243 24.7664 32.3185 24.5344 32.3081 24.3038C34.4802 22.8416 37.0011 22.0703 39.6485 22.0703H41.1134V23.5352C41.1134 30.7479 35.291 36.6252 28.0996 36.7166C29.934 34.1694 32.3243 29.9089 32.3243 25ZM36.7188 42.5781C33.6495 42.5781 30.8293 41.0477 28.8663 39.6205C33.2379 39.3687 37.1475 37.3667 39.9037 34.3057C42.7374 35.1982 45.1297 37.0428 46.4227 38.1879C44.678 39.7427 40.9199 42.5781 36.7188 42.5781Z" fill="#E6967D"/>
<path d="M25 1.5625C24.191 1.5625 23.5352 2.21836 23.5352 3.02734V5.95703C23.5352 6.76602 24.191 7.42188 25 7.42188C25.809 7.42188 26.4648 6.76602 26.4648 5.95703V3.02734C26.4648 2.21836 25.809 1.5625 25 1.5625Z" fill="#E6967D"/>
<path d="M15.353 10.3516L13.2814 8.27997C12.7093 7.7079 11.7819 7.7079 11.2098 8.27997C10.6377 8.85204 10.6377 9.77948 11.2098 10.3516L13.2814 12.4231C13.8534 12.9951 14.7808 12.9953 15.353 12.4231C15.925 11.8511 15.925 10.9236 15.353 10.3516Z" fill="#E6967D"/>
<path d="M38.7904 8.27997C38.2183 7.7079 37.2909 7.7079 36.7187 8.27997L34.6472 10.3516C34.0753 10.9236 34.0753 11.8511 34.6472 12.4231C35.2192 12.9952 36.1468 12.9952 36.7188 12.4231L38.7904 10.3516C39.3624 9.77948 39.3624 8.85204 38.7904 8.27997Z" fill="#E6967D"/>
</g>
<defs>
<clipPath id="clip0">
<rect width="50" height="50" fill="white"/>
</clipPath>
</defs>
</svg>
