<svg width="58" height="83" viewBox="0 0 58 83" fill="none" xmlns="http://www.w3.org/2000/svg">
<path d="M50.0888 44.5647C52.6769 44.2041 54.2398 43.0853 54.2398 43.0853C49.713 42.06 47.9598 37.0943 47.9598 37.0943C51.9423 38.0429 54.2398 35.9772 54.2398 35.9772C51.3609 35.2695 48.2833 31.437 46.9858 29.661C48.4678 28.4613 49.3423 26.3458 49.745 23.9784C50.4561 19.8299 48.9649 17.8062 46.3388 17.3538C45.4483 7.60701 42.6436 0.00603412 28.9243 0.000979155C15.5411 -0.00407581 12.5393 7.3846 11.6614 17.353L11.4457 17.342V17.3656C8.86258 17.8408 7.5904 19.8569 8.25514 23.9775C8.67218 26.5589 9.57702 28.4857 11.0211 29.6526C9.72699 31.4252 6.64427 35.2678 3.76039 35.9763C3.76039 35.9763 6.05958 38.0421 10.0412 37.0935C10.0412 37.0935 8.28884 42.06 3.76039 43.0844C3.76039 43.0844 5.34598 44.2226 7.97206 44.574C1.46878 53.0663 0.358361 64.0103 0.0104071 70.2869C-0.171573 73.581 2.05516 76.4093 4.95505 76.6022C5.06121 76.6089 10.6369 76.892 10.6369 76.892C14.1004 80.8265 21.2373 82.3615 29.1264 82.3615C37.5001 82.3615 44.0665 80.5257 47.3717 76.892C47.3717 76.892 52.9457 76.6089 53.0476 76.6022C55.9509 76.4093 58.1102 73.5844 57.9956 70.2902C57.6907 61.4997 55.3367 51.5001 50.0888 44.5647ZM17.4923 42.6918C18.7207 41.9378 19.7941 41.2217 20.7452 40.546C23.1868 42.2841 25.9662 43.2689 28.9243 43.2689C31.9623 43.2689 34.8108 42.2925 37.2996 40.5308C38.1918 41.172 39.1851 41.8409 40.3107 42.5301C41.7438 43.4088 43.0589 44.5133 44.2603 45.8124C39.8759 48.2169 34.5918 49.6348 28.8939 49.6348C23.2399 49.6348 18.0012 48.2287 13.6345 45.8596C14.8115 44.6102 16.0972 43.5478 17.4923 42.6918ZM32.1401 14.6368C33.0011 16.3622 35.4671 19.744 41.8929 21.2588C41.2905 31.2617 35.8774 38.3311 28.7777 38.3311C22.5094 38.3311 17.5648 32.1767 16.2429 23.6978C25.379 23.0701 31.2319 15.8348 32.1401 14.6368ZM52.559 71.4023C51.7704 71.4436 48.8073 71.5953 47.6143 71.6542V66.4063C47.6143 65.6869 47.0305 65.1022 46.3101 65.1022C45.589 65.1022 45.0043 65.6843 45.0043 66.4063V71.7882L44.9588 71.7916L43.5097 73.383C41.7488 75.3225 37.2549 77.1414 28.4381 77.1414C21.1985 77.1414 16.1999 75.3191 14.5512 73.4454L13.0001 71.7949V66.4063C13.0001 65.6869 12.4188 65.1022 11.6959 65.1022C10.9747 65.1022 10.3926 65.6843 10.3926 66.4063V71.6593C9.2594 71.6028 6.19775 71.4419 5.44792 71.4015C5.35609 71.2894 5.19601 71.0072 5.2196 70.5556C5.56334 63.878 7.27783 53.1211 12.7373 46.8748C17.0298 49.2574 22.1564 50.709 27.6908 50.896V58.4726H30.2967V50.9087C35.7965 50.6913 40.8802 49.206 45.1416 46.8158C49.5605 51.2263 52.4823 61.5342 52.7806 70.5556C52.7991 71.0089 52.6483 71.2903 52.559 71.4023Z" fill="#3E3E3D"/>
</svg>
